<?xml version="1.0" standalone="no"?>
<!DOCTYPE svg PUBLIC "-//W3C//DTD SVG 20010904//EN"
 "http://www.w3.org/TR/2001/REC-SVG-20010904/DTD/svg10.dtd">
<svg version="1.0" xmlns="http://www.w3.org/2000/svg"
 width="520.000000pt" height="520.000000pt" viewBox="0 0 520.000000 520.000000"
 preserveAspectRatio="xMidYMid meet">
<metadata>
Created by potrace 1.11, written by Peter Selinger 2001-2013
</metadata>
<g transform="translate(0.000000,520.000000) scale(0.100000,-0.100000)"
fill="#000000" stroke="none">
<path d="M2499 5126 c-2 -2 -29 -6 -59 -9 -334 -33 -660 -282 -835 -636 -34
-68 -101 -234 -110 -271 -2 -8 -41 -114 -85 -235 -45 -121 -85 -231 -90 -245
-4 -14 -83 -232 -175 -485 -92 -253 -186 -514 -210 -580 -23 -66 -136 -376
-250 -690 -113 -314 -238 -658 -276 -765 -39 -107 -83 -229 -99 -270 -90 -238
-306 -845 -300 -848 3 -1 71 20 151 49 79 28 200 70 269 94 69 23 211 73 315
109 105 37 195 68 200 70 11 4 22 31 120 306 36 102 91 253 122 335 30 83 56
155 57 160 2 6 6 17 9 25 3 8 65 179 137 380 149 414 169 467 180 495 7 17 71
192 123 340 30 84 277 765 291 802 8 21 45 121 81 223 36 102 69 192 72 200 3
8 7 18 7 22 1 3 4 10 9 14 4 4 7 17 7 29 0 11 4 25 8 30 5 6 28 64 51 130 23
66 51 143 63 170 70 174 172 256 316 257 148 2 250 -82 322 -265 26 -65 60
-158 156 -422 17 -49 98 -271 178 -492 80 -221 146 -405 146 -408 0 -4 6 -21
14 -38 8 -18 49 -129 91 -247 43 -118 113 -312 156 -430 43 -118 126 -348 184
-510 58 -162 124 -342 145 -400 21 -58 57 -157 80 -220 23 -63 50 -137 60
-165 53 -146 99 -272 104 -292 8 -25 -7 -18 221 -98 99 -35 304 -106 454 -159
151 -53 278 -95 281 -94 6 3 -87 272 -111 323 -5 11 -13 34 -18 50 -5 17 -28
81 -50 143 -23 61 -59 160 -80 220 -22 59 -53 148 -71 197 -17 50 -35 99 -40
110 -5 11 -86 234 -180 495 -94 261 -189 522 -210 580 -21 58 -77 213 -125
345 -47 132 -92 256 -100 275 -7 19 -25 67 -39 105 -13 39 -81 225 -150 415
-210 581 -253 702 -281 780 -15 41 -30 84 -35 95 -4 11 -18 47 -30 80 -70 196
-183 379 -313 510 -171 171 -298 237 -583 302 -38 9 -267 16 -275 9z"/>
<path d="M2475 2366 c-191 -43 -354 -165 -447 -336 -45 -82 -82 -218 -81 -300
3 -211 69 -377 202 -507 240 -234 612 -253 871 -44 25 20 56 49 69 65 14 15
29 33 35 40 152 166 189 478 84 708 -81 177 -235 308 -423 363 -79 22 -233 28
-310 11z"/>
</g>
</svg>
