<svg width="34" height="34" viewBox="0 0 34 34" version="1.1" xmlns="http://www.w3.org/2000/svg" xmlns:xlink="http://www.w3.org/1999/xlink">
<title>Combined Shape</title>
<desc>Created using Figma</desc>
<g id="Canvas" transform="translate(-1015 -4192)">
<g id="Combined Shape">
<use xlink:href="#path0_fill" transform="translate(1015 4192)" fill="#182848"/>
</g>
</g>
<defs>
<path id="path0_fill" fill-rule="evenodd" d="M 0 17C 0 7.61133 7.61115 0 17 0C 26.3888 0 34 7.61133 34 17C 34 26.3887 26.3888 34 17 34C 7.61115 34 0 26.3887 0 17ZM 14.2661 12.4219L 8.8233 9.73242C 8.77673 9.70947 8.73236 9.69873 8.69226 9.69873C 8.63513 9.69873 8.58679 9.7207 8.5528 9.76123C 8.51953 9.80127 8.5 9.8584 8.5 9.93018L 8.5 21.4746C 8.5 21.6714 8.64551 21.9038 8.8233 21.9917L 13.8531 24.4771C 13.923 24.5117 13.9896 24.5278 14.0498 24.5278C 14.2192 24.5278 14.3381 24.3984 14.3381 24.1807L 14.3381 12.5371C 14.3381 12.4883 14.3103 12.4438 14.2661 12.4219ZM 25.5288 24.4736L 20.6412 22.0586L 26.0138 13.4316L 26.0138 24.1772C 26.0138 24.4722 25.7955 24.6055 25.5288 24.4736ZM 14.8541 13.2861L 14.8541 19.2026L 20.1763 21.832L 14.8541 13.2861ZM 20.3379 9.65283L 25.8859 12.394C 25.955 12.4282 25.9795 12.5137 25.9391 12.5786L 20.4792 21.3457L 16.662 15.2163L 20.0815 9.7251C 20.1179 9.66699 20.1851 9.6333 20.2526 9.6333L 20.2579 9.63379C 20.2853 9.63477 20.3127 9.64062 20.3379 9.65283Z"/>
</defs>
</svg>
