<svg width="36" height="36" viewBox="0 0 36 36" version="1.1" xmlns="http://www.w3.org/2000/svg" xmlns:xlink="http://www.w3.org/1999/xlink">
<title> </title>
<desc>Created using Figma</desc>
<g id="Canvas" transform="translate(-1220 -4191)">
<g id=" ">
<g id="Fill 1">
<use xlink:href="#path0_fill" transform="matrix(0.970296 -0.241922 0.241922 0.970296 1222.41 4199.64)" fill="#182848"/>
</g>
<g id="Oval 4">
<use xlink:href="#path1_fill" transform="translate(1220.23 4191.23)" fill="#182848"/>
</g>
</g>
</g>
<defs>
<path id="path0_fill" fill-rule="evenodd" d="M 11.9521 11.7176L 12.8505 8.114C 12.9536 8.1397 13.0798 8.16765 13.223 8.19933C 14.4943 8.48106 17.097 9.05703 16.6208 10.9688C 16.1542 12.8377 13.4754 12.1225 12.2478 11.7948C 12.1364 11.765 12.0369 11.7387 11.9521 11.7176ZM 10.5076 17.5094L 11.4987 13.5364C 11.6219 13.5671 11.7723 13.6011 11.943 13.6391C 13.4664 13.9812 16.5867 14.6817 16.0625 16.7838C 15.5508 18.8403 12.331 17.9897 10.8587 17.6004C 10.7265 17.5655 10.6084 17.5345 10.5076 17.5094ZM 20.1865 11.0008C 19.9495 12.6031 19.0612 13.3789 17.8819 13.6508C 19.5012 14.4939 20.3253 15.7868 19.5403 18.0281C 18.5661 20.8117 16.2518 21.0466 13.1741 20.4643L 12.4271 23.4577L 10.6222 23.0079L 11.3594 20.0546C 10.8915 19.9384 10.4135 19.815 9.92104 19.6813L 9.18127 22.6486L 7.37848 22.1987L 8.12535 19.1996C 7.70382 19.0917 7.27567 18.9771 6.8387 18.8675L 4.48987 18.282L 5.38588 16.216C 5.38588 16.216 6.71579 16.5697 6.69778 16.5435C 7.20876 16.6699 7.43546 16.3367 7.52491 16.1147L 8.70533 11.3827C 8.77162 11.3987 8.83583 11.4151 8.896 11.43C 8.82395 11.4012 8.75876 11.3827 8.70839 11.3699L 9.55036 7.99197C 9.57254 7.60842 9.44044 7.12476 8.70937 6.94218C 8.73768 6.92319 7.39858 6.61635 7.39858 6.61635L 7.87868 4.68857L 10.3678 5.31009L 10.3657 5.31928C 10.74 5.41241 11.1255 5.50076 11.5182 5.59021L 12.258 2.62612L 14.0619 3.07596L 13.337 5.98184C 13.8213 6.0925 14.3087 6.20401 14.7831 6.32226L 15.5028 3.43524L 17.3077 3.88508L 16.5685 6.85015C 18.8472 7.63514 20.5139 8.81188 20.1865 11.0008ZM 12.8571 0C 5.75637 0 -8.52651e-14 5.75627 -8.52651e-14 12.8571C -8.52651e-14 19.9579 5.75637 25.7143 12.8571 25.7143C 19.958 25.7143 25.7143 19.9579 25.7143 12.8571C 25.7143 5.75627 19.958 0 12.8571 0Z"/>
<path id="path1_fill" fill-rule="evenodd" d="M 0 17.7661C 0 27.5781 7.95422 35.5322 17.7662 35.5322C 27.5782 35.5322 35.5325 27.5781 35.5325 17.7661C 35.5325 7.9541 27.5782 0 17.7662 0C 7.95422 0 0 7.9541 0 17.7661ZM 34.1299 17.7666C 34.1299 26.8037 26.8036 34.1299 17.7662 34.1299C 8.72888 34.1299 1.40259 26.8037 1.40259 17.7666C 1.40259 8.729 8.72888 1.40283 17.7662 1.40283C 26.8036 1.40283 34.1299 8.729 34.1299 17.7666Z"/>
</defs>
</svg>
