<svg width="34" height="34" viewBox="0 0 34 34" version="1.1" xmlns="http://www.w3.org/2000/svg" xmlns:xlink="http://www.w3.org/1999/xlink">
<title>Combined Shape</title>
<desc>Created using Figma</desc>
<g id="Canvas" transform="translate(-816 -4192)">
<g id="Combined Shape">
<use xlink:href="#path0_fill" transform="translate(816 4192)" fill="#182848"/>
</g>
</g>
<defs>
<path id="path0_fill" fill-rule="evenodd" d="M 17 0C 7.61115 0 0 7.61133 0 17C 0 26.3887 7.61115 34 17 34C 26.3889 34 34 26.3887 34 17C 34 7.61133 26.3889 0 17 0ZM 8.16113 14.0801L 12.0137 14.0801L 12.0137 25.6553L 8.16113 25.6553L 8.16113 14.0801ZM 12.2675 10.4995C 12.2425 9.36426 11.4308 8.5 10.1129 8.5C 8.79498 8.5 7.93335 9.36426 7.93335 10.4995C 7.93335 11.6108 8.76953 12.5 10.0629 12.5L 10.0875 12.5C 11.4308 12.5 12.2675 11.6108 12.2675 10.4995ZM 21.4718 13.8081C 24.007 13.8081 25.9075 15.4629 25.9075 19.0186L 25.9074 25.6553L 22.055 25.6553L 22.055 19.4624C 22.055 17.9067 21.4975 16.8457 20.1028 16.8457C 19.0385 16.8457 18.4045 17.561 18.1261 18.2524C 18.0242 18.5 17.9992 18.8452 17.9992 19.1909L 17.9992 25.6558L 14.1462 25.6558C 14.1462 25.6558 14.197 15.1665 14.1462 14.0801L 17.9992 14.0801L 17.9992 15.7197C 18.5106 14.9316 19.4263 13.8081 21.4718 13.8081Z"/>
</defs>
</svg>
