<svg width="34" height="34" viewBox="0 0 34 34" version="1.1" xmlns="http://www.w3.org/2000/svg" xmlns:xlink="http://www.w3.org/1999/xlink">
<title>Combined Shape</title>
<desc>Created using Figma</desc>
<g id="Canvas" transform="translate(-766 -4192)">
<g id="Combined Shape">
<use xlink:href="#path0_fill" transform="translate(766 4192)" fill="#182848"/>
</g>
</g>
<defs>
<path id="path0_fill" fill-rule="evenodd" d="M 17 0C 7.61115 0 0 7.61133 0 17C 0 26.3887 7.61115 34 17 34C 26.3889 34 34 26.3887 34 17C 34 7.61133 26.3889 0 17 0ZM 16.5266 14.4062L 16.4908 13.8179C 16.3839 12.2935 17.3232 10.9009 18.8096 10.3608C 19.3566 10.1685 20.2841 10.1445 20.8906 10.3125C 21.1284 10.3848 21.5803 10.6245 21.9013 10.8408L 22.484 11.2368L 23.1261 11.0327C 23.4828 10.9248 23.9585 10.7446 24.1725 10.6245C 24.3747 10.5166 24.553 10.4565 24.553 10.4927C 24.553 10.6968 24.1131 11.3931 23.7444 11.7773C 23.245 12.3174 23.3877 12.3652 24.3984 12.0054C 25.0049 11.8013 25.0168 11.8013 24.8979 12.0293C 24.8265 12.1494 24.4579 12.5693 24.0655 12.9536C 23.3996 13.6138 23.364 13.686 23.364 14.2383C 23.364 15.0903 22.9597 16.8672 22.5554 17.8398C 21.8062 19.6646 20.2009 21.5493 18.5956 22.4976C 16.3362 23.8301 13.3278 24.166 10.795 23.3857C 9.95074 23.1216 8.5 22.4497 8.5 22.3296C 8.5 22.2935 8.94 22.2456 9.4751 22.2334C 10.5928 22.2095 11.7106 21.8975 12.6619 21.3452L 13.304 20.9609L 12.5668 20.709C 11.5203 20.3486 10.5809 19.5205 10.3431 18.7402C 10.2718 18.4878 10.2956 18.4761 10.9615 18.4761L 11.6512 18.4639L 11.0685 18.188C 10.3788 17.8398 9.7486 17.2515 9.43939 16.6514C 9.21344 16.2188 8.9281 15.1265 9.01129 15.0425C 9.0351 15.0063 9.28479 15.0786 9.57019 15.1743C 10.3907 15.4746 10.4977 15.4028 10.0221 14.8984C 9.13025 13.9858 8.85675 12.6294 9.28479 11.3452L 9.48694 10.7686L 10.2718 11.5493C 11.8771 13.1216 13.7678 14.0581 15.9319 14.334L 16.5266 14.4062Z"/>
</defs>
</svg>
