<svg width="36" height="36" viewBox="0 0 36 36" version="1.1" xmlns="http://www.w3.org/2000/svg" xmlns:xlink="http://www.w3.org/1999/xlink">
<title>Combined Shape</title>
<desc>Created using Figma</desc>
<g id="Canvas" transform="translate(-1168 -4191)">
<g id="Combined Shape">
<use xlink:href="#path0_fill" transform="translate(1168 4191)" fill="#182848"/>
</g>
</g>
<defs>
<path id="path0_fill" fill-rule="evenodd" d="M 0 17.9741C 0 8.04736 8.05884 0 18 0C 27.9412 0 36 8.04736 36 17.9741C 36 27.9009 27.9412 35.9482 18 35.9482C 8.05884 35.9482 0 27.9009 0 17.9741ZM 14.7061 17.4609L 14.7061 19.4121L 17.9496 19.4121C 17.8188 20.2495 16.9691 21.8677 14.7061 21.8677C 12.7534 21.8677 11.1603 20.2578 11.1603 18.2739C 11.1603 16.29 12.7534 14.6797 14.7061 14.6797C 15.8171 14.6797 16.5607 15.1514 16.9855 15.5581L 18.5378 14.0698C 17.541 13.1431 16.2502 12.582 14.7061 12.582C 11.5443 12.582 8.98706 15.127 8.98706 18.2739C 8.98706 21.4204 11.5443 23.9658 14.7061 23.9658C 18.0067 23.9658 20.1963 21.6562 20.1963 18.4038C 20.1963 18.0298 20.1555 17.7451 20.1064 17.4609L 14.7061 17.4609ZM 25.327 17.4609L 26.9611 17.4609L 26.9611 19.0869L 25.327 19.0869L 25.327 20.7134L 23.6931 20.7134L 23.6931 19.0869L 22.0591 19.0869L 22.0591 17.4609L 23.6931 17.4609L 23.6931 15.8345L 25.327 15.8345L 25.327 17.4609Z"/>
</defs>
</svg>
