<svg width="36" height="36" viewBox="0 0 36 36" version="1.1" xmlns="http://www.w3.org/2000/svg" xmlns:xlink="http://www.w3.org/1999/xlink">
<title>Combined Shape</title>
<desc>Created using Figma</desc>
<g id="Canvas" transform="translate(-1117 -4191)">
<g id="Combined Shape">
<use xlink:href="#path0_fill" transform="translate(1117 4191)" fill="#182848"/>
</g>
</g>
<defs>
<path id="path0_fill" fill-rule="evenodd" d="M 0 17.9741C 0 8.04736 8.05884 0 18 0C 27.9412 0 36 8.04736 36 17.9741C 36 27.9009 27.9412 35.9482 18 35.9482C 8.05884 35.9482 0 27.9009 0 17.9741ZM 20.8171 9.57422C 20.5258 8.67725 19.5626 8.18652 18.6659 8.47803C 17.769 8.76953 17.2783 9.73242 17.5698 10.6294L 18.129 12.3501L 14.5359 13.5181L 13.9767 11.7969C 13.6852 10.8999 12.722 10.4092 11.8253 10.7007C 10.9285 10.9922 10.4377 11.9551 10.7292 12.8521L 11.2887 14.5732L 9.51343 15.1504C 8.67566 15.4531 8.20483 16.3584 8.45508 17.2271C 8.7157 18.1328 9.6781 18.6855 10.5682 18.3965L 12.3438 17.8193L 13.5118 21.4136L 11.7362 21.9907C 10.8984 22.2935 10.4276 23.1987 10.6776 24.0674C 10.9385 24.9731 11.9009 25.5259 12.7908 25.2368L 14.5669 24.6597L 15.1439 26.4351C 15.447 27.2725 16.3521 27.7437 17.2208 27.4932C 18.127 27.2324 18.6793 26.27 18.3901 25.3799L 17.8134 23.605L 21.4076 22.437L 21.9845 24.2119C 22.2876 25.0498 23.1926 25.5205 24.0614 25.2705C 24.9675 25.0098 25.5199 24.0474 25.2307 23.1577L 24.6538 21.3823L 26.374 20.8232C 27.2709 20.5317 27.7616 19.5688 27.4702 18.6719C 27.1788 17.7749 26.2157 17.2842 25.319 17.5757L 23.5986 18.1348L 22.4313 14.542L 24.1515 13.9829C 25.0482 13.6914 25.5389 12.7285 25.2476 11.8315C 24.9563 10.9346 23.993 10.4438 23.0962 10.7354L 21.3761 11.2944L 20.8171 9.57422ZM 19.1844 15.5967L 15.5907 16.7646L 16.7584 20.3584L 20.3523 19.1899L 19.1844 15.5967Z"/>
</defs>
</svg>
