<svg width="36" height="36" viewBox="0 0 36 36" version="1.1" xmlns="http://www.w3.org/2000/svg" xmlns:xlink="http://www.w3.org/1999/xlink">
<title>2SL</title>
<desc>Created using Figma</desc>
<g id="Canvas" transform="translate(-1065 -4191)">
<g id="2SL">
<g id="Shape">
<use xlink:href="#path0_fill" transform="translate(1065 4191.01)" fill="#182848"/>
</g>
<g id="Shape">
<use xlink:href="#path1_fill" transform="translate(1085.53 4206.66)" fill="#182848"/>
</g>
<g id="Shape">
<use xlink:href="#path2_fill" transform="translate(1078.22 4213.06)" fill="#182848"/>
</g>
<g id="Shape">
<use xlink:href="#path3_fill" transform="translate(1076.89 4206.66)" fill="#182848"/>
</g>
</g>
</g>
<defs>
<path id="path0_fill" fill-rule="evenodd" d="M 35.9875 18.5073C 36.2593 8.1543 27.8485 -0.226562 17.5846 0.00488281C 8.01624 0.221191 0.0593262 7.98535 0 17.9858C 0.0489502 28.001 8.05164 35.8828 17.7814 35.981C 27.9932 36.084 35.7397 27.9458 35.9875 18.5073ZM 32.0961 14.6304C 32.2115 15.8662 31.6327 16.7812 30.6791 17.4883C 30.4512 17.6577 30.3804 17.8003 30.4199 18.0962C 30.7186 20.3052 30.0753 22.2417 28.623 23.9072C 26.7917 26.0073 24.413 27.1533 21.7416 27.7563C 19.8854 28.1758 18.0062 28.2651 16.1167 28.0278C 13.9565 27.7563 11.8962 27.1626 10.0389 25.9907C 8.41077 24.9639 7.0719 23.6636 6.29321 21.8628C 5.74561 20.5967 5.604 19.2808 5.83105 17.9243C 5.85498 17.7788 5.82471 17.6987 5.6925 17.6099C 4.88464 17.0688 4.29858 16.3555 4.14758 15.3696C 3.76343 12.8618 5.99341 11.3354 7.87146 11.833C 8.2666 11.9375 8.64111 12.1235 9.01465 12.3086C 9.15393 12.3779 9.29309 12.4468 9.43311 12.5117C 9.55908 12.5693 9.64343 12.6079 9.78076 12.5142C 11.2861 11.4863 12.9436 10.814 14.7249 10.437C 15.718 10.228 16.7195 10.084 17.7356 10.0903C 17.9375 10.0913 17.9761 9.98193 18.0229 9.83301C 18.3828 8.68701 18.7446 7.54053 19.1064 6.39404L 19.6532 4.66113C 19.8458 4.04932 20.1383 3.87744 20.764 4.01172L 22.0142 4.27783C 23.1036 4.50977 24.193 4.74121 25.2812 4.97998C 25.4666 5.02051 25.5728 4.98584 25.6987 4.84033C 26.9761 3.35449 28.9592 4.03369 29.5964 5.16846C 30.3939 6.58838 29.5006 8.36133 27.8547 8.62646C 26.6575 8.81934 25.4728 8.06055 25.1521 6.87061C 25.0845 6.61865 24.9668 6.53516 24.7274 6.48633C 23.9108 6.32031 23.0962 6.14355 22.2815 5.9668L 21.2512 5.74414C 21.1918 5.73096 21.1312 5.72217 21.0642 5.7124C 21.0282 5.70703 20.9901 5.70166 20.9493 5.69482L 20.4547 7.2334L 19.4908 10.2339L 19.8345 10.27L 20.2903 10.3174C 22.5598 10.5474 24.6628 11.2524 26.5721 12.5107C 26.6929 12.5898 26.7648 12.5859 26.8823 12.4902C 27.912 11.6489 29.0603 11.499 30.2606 12.0288C 31.3704 12.519 31.9835 13.4199 32.0961 14.6304Z"/>
<path id="path1_fill" d="M 3.80301 1.92702C 3.80717 2.92436 2.91186 3.81656 1.90515 3.8176C 0.857838 3.81864 0.00104198 2.9379 9.19822e-07 1.85727C -0.00104014 0.868262 0.881782 0.00313811 1.89474 1.49171e-05C 2.93788 -0.00414934 3.7978 0.864098 3.80301 1.92702Z"/>
<path id="path2_fill" d="M 9.62208 0.277112C 9.82301 0.475955 9.87922 0.776823 9.6606 1.0298C 9.4045 1.32442 9.10051 1.59926 8.76737 1.79915C 7.85644 2.34675 6.84973 2.62471 5.79409 2.72153C 5.49218 2.74964 5.19131 2.7663 5.006 2.77983C 3.30803 2.76109 1.84013 2.37798 0.534632 1.46184C 0.381595 1.35461 0.237929 1.21927 0.130699 1.06832C -0.0587748 0.799726 -0.0348303 0.47075 0.154643 0.281276C 0.443018 -0.00918099 0.818842 -0.0695627 1.11867 0.104295C 1.52156 0.339576 1.91508 0.602965 2.34296 0.780987C 4.43134 1.65028 6.44684 1.46705 8.37593 0.29481C 8.48628 0.228182 8.59039 0.14802 8.70178 0.0824327C 8.98287 -0.0778912 9.34308 0.000188589 9.62208 0.277112Z"/>
<path id="path3_fill" d="M 3.81759 1.92285C 3.82175 2.88687 2.91498 3.8155 1.96866 3.81758C 0.894278 3.81966 0.00312691 2.95662 3.71488e-06 1.91243C -0.00207841 0.88074 0.871374 0 1.89682 0C 2.9358 0 3.81342 0.877617 3.81759 1.92285Z"/>
</defs>
</svg>
