<svg width="33" height="33" viewBox="0 0 33 33" version="1.1" xmlns="http://www.w3.org/2000/svg" xmlns:xlink="http://www.w3.org/1999/xlink">
<title>Fill 51</title>
<desc>Created using Figma</desc>
<g id="Canvas" transform="translate(-966 -4193)">
<g id="Fill 51">
<use xlink:href="#path0_fill" transform="translate(966 4193)" fill="#182848"/>
</g>
</g>
<defs>
<path id="path0_fill" fill-rule="evenodd" d="M 16.5001 0C 7.38856 0 0 7.57393 0 16.9176C 0 24.3924 4.72779 30.7339 11.2838 32.9709C 12.1084 33.1275 12.4112 32.6039 12.4112 32.1571C 12.4112 31.7537 12.3959 30.421 12.3888 29.0073C 7.79841 30.0307 6.82979 27.0112 6.82979 27.0112C 6.07921 25.0558 4.99775 24.5358 4.99775 24.5358C 3.50069 23.4858 5.11059 23.5074 5.11059 23.5074C 6.76749 23.6264 7.63993 25.2507 7.63993 25.2507C 9.11158 27.8371 11.4999 27.0894 12.4415 26.6571C 12.5896 25.564 13.0172 24.8171 13.4891 24.3949C 9.82418 23.9671 5.97156 22.5165 5.97156 16.034C 5.97156 14.1869 6.61612 12.6778 7.67163 11.493C 7.50031 11.0666 6.93553 9.34618 7.83147 7.01587C 7.83147 7.01587 9.21705 6.56118 12.3702 8.75002C 13.6864 8.37517 15.0979 8.18719 16.5001 8.18075C 17.9024 8.18719 19.315 8.37517 20.6336 8.75002C 23.783 6.56118 25.1666 7.01587 25.1666 7.01587C 26.0647 9.34618 25.4997 11.0666 25.3284 11.493C 26.3863 12.6778 27.0265 14.1869 27.0265 16.034C 27.0265 22.5319 23.1665 23.9626 19.4923 24.3814C 20.0842 24.9064 20.6115 25.936 20.6115 27.5144C 20.6115 29.7777 20.5924 31.5996 20.5924 32.1571C 20.5924 32.6073 20.8894 33.1348 21.7258 32.9687C 28.2782 30.7291 33 24.3898 33 16.9176C 33 7.57393 25.6125 0 16.5001 0"/>
</defs>
</svg>
