<svg width="36" height="36" viewBox="0 0 36 36" version="1.1" xmlns="http://www.w3.org/2000/svg" xmlns:xlink="http://www.w3.org/1999/xlink">
<title>Group 11</title>
<desc>Created using Figma</desc>
<g id="Canvas" transform="translate(-865 -4191)">
<g id="Group 11">
<g id="Oval 3">
<use xlink:href="#path0_fill" transform="translate(865 4191)" fill="#182848"/>
</g>
<g id="Group 10">
<g id="Shape">
<use xlink:href="#path1_fill" transform="translate(873.743 4201.29)" fill="#FFFFFF"/>
</g>
<g id="Shape">
<use xlink:href="#path2_fill" transform="translate(879.4 4199.23)" fill="#FFFFFF"/>
</g>
</g>
</g>
</g>
<defs>
<path id="path0_fill" fill-rule="evenodd" d="M 18 36C 27.9411 36 36 27.9411 36 18C 36 8.05887 27.9411 0 18 0C 8.05887 0 0 8.05887 0 18C 0 27.9411 8.05887 36 18 36Z"/>
<path id="path1_fill" fill-rule="evenodd" d="M 0.144043 2.84375C 0.511719 1.73291 1.41693 0.821289 2.29382 0.0805664C 2.49182 -0.0615234 2.63324 -0.00488281 2.60498 0.166016C 2.59082 0.322754 2.5625 0.472656 2.53424 0.62207C 2.50598 0.771484 2.47766 0.921387 2.46356 1.07764C 2.40698 1.50488 2.40698 1.90381 2.43524 2.33105C 2.46356 2.87256 2.57666 3.38525 2.77472 3.86963C 2.97272 4.3252 3.19897 4.78125 3.42529 5.2085C 3.99103 6.40479 4.55676 7.60107 5.09424 8.79785L 5.27051 9.20898C 5.46503 9.66113 5.6557 10.104 5.82965 10.564C 6.05597 11.1904 6.16913 11.7886 5.97113 12.4438C 5.57507 13.7544 4.50018 14.7227 3.51013 15.5776C 3.48438 15.5991 3.45148 15.6294 3.41455 15.6631C 3.20819 15.8521 2.87671 16.1548 2.97272 15.7197C 3.03601 15.3755 3.12195 15.0371 3.2077 14.6992C 3.31366 14.2822 3.41937 13.8657 3.48187 13.4409C 3.60687 12.4839 3.15717 11.4829 2.75806 10.5942C 2.70569 10.4775 2.65417 10.3628 2.60498 10.2505C 2.27405 9.49609 1.91095 8.76367 1.54865 8.03271C 1.32257 7.57617 1.09686 7.12061 0.879456 6.66113C 0.313721 5.49316 -0.280273 4.1543 0.144043 2.84375ZM 13.0994 2.84375C 13.4671 1.73291 14.3723 0.821289 15.2492 0.0805664C 15.4472 -0.0615234 15.5886 -0.00488281 15.5604 0.166016C 15.5462 0.322754 15.5179 0.472656 15.4896 0.62207C 15.4614 0.771484 15.433 0.921387 15.4189 1.07764C 15.3624 1.50488 15.3624 1.90381 15.3906 2.33105C 15.4189 2.87256 15.532 3.38525 15.7301 3.86963C 15.9281 4.3252 16.1544 4.78125 16.3807 5.2085C 16.9464 6.40479 17.5121 7.60107 18.0496 8.79785L 18.2259 9.20898C 18.4204 9.66113 18.6111 10.104 18.785 10.564C 19.0114 11.1904 19.1245 11.7886 18.9265 12.4438C 18.5305 13.7544 17.4556 14.7227 16.4655 15.5776C 16.4398 15.5991 16.4069 15.6294 16.3699 15.6631C 16.1636 15.8521 15.8321 16.1548 15.9281 15.7197C 15.9914 15.3755 16.0773 15.0371 16.1631 14.6992C 16.269 14.2822 16.3748 13.8657 16.4373 13.4409C 16.5623 12.4839 16.1125 11.4829 15.7134 10.5942C 15.6611 10.4775 15.6096 10.3628 15.5604 10.2505C 15.2294 9.49609 14.8663 8.76367 14.504 8.03271C 14.278 7.57617 14.0522 7.12061 13.8348 6.66113C 13.2691 5.49316 12.6751 4.1543 13.0994 2.84375Z"/>
<path id="path2_fill" d="M 2.97723 0.124561C 2.00901 0.938381 0.957803 1.92058 0.376871 3.07115C -0.0380799 3.88497 -0.0934067 4.72685 0.127901 5.56873C 0.404535 6.57899 0.791823 7.58925 1.20677 8.57145C 2.00901 10.4517 3.06022 12.2196 3.8348 14.1279C 4.11143 14.8014 4.41573 15.5591 4.47106 16.3168C 4.52638 17.2428 4.22209 18.225 3.97312 19.095C 3.91779 19.3475 3.75181 19.6843 3.77947 19.9369C 3.80714 20.1333 3.91779 20.0491 4.02844 19.9649C 4.49872 19.6001 4.969 19.1792 5.38395 18.7582C 6.51815 17.6638 7.81833 16.2045 7.70768 14.4927C 7.65235 13.7911 7.32039 13.1176 7.04376 12.4722C 6.73946 11.7145 6.4075 10.9848 6.07554 10.2552C 5.46694 8.88014 4.83068 7.53312 4.16676 6.18611C 3.94545 5.70905 3.66882 5.26004 3.50284 4.78298C 3.25387 4.13753 3.14321 3.46403 3.11555 2.79052C 3.08789 2.28539 3.11555 1.7522 3.17088 1.24707C 3.19854 0.910318 3.30919 0.601628 3.30919 0.264875C 3.39218 -0.0438151 3.2262 -0.0718778 2.97723 0.124561L 2.97723 0.124561Z"/>
</defs>
</svg>
